<svg xmlns="http://www.w3.org/2000/svg" viewBox="0 0 512 512">
  <path fill="#ffffff" d="M256 0C114.844 0 0 114.844 0 256s114.844 256 256 256 256-114.844 256-256S397.156 0 256 0zm0 448c-105.867 0-192-86.133-192-192S150.133 64 256 64s192 86.133 192 192-86.133 192-192 192z"/>
  <path fill="#ef5350" d="M256 64C150.133 64 64 150.133 64 256s86.133 192 192 192 192-86.133 192-192S361.867 64 256 64zm0 320c-70.578 0-128-57.422-128-128s57.422-128 128-128 128 57.422 128 128-57.422 128-128 128z"/>
  <circle fill="#ffffff" cx="256" cy="256" r="32"/>
  <circle fill="#212121" cx="256" cy="256" r="96" fill-opacity="0.2"/>
  <path fill="#ffffff" d="M288 256c0 17.673-14.327 32-32 32s-32-14.327-32-32 14.327-32 32-32 32 14.327 32 32z"/>
  <path fill="#212121" d="M256 192c-35.346 0-64 28.654-64 64s28.654 64 64 64 64-28.654 64-64-28.654-64-64-64zm0 96c-17.673 0-32-14.327-32-32s14.327-32 32-32 32 14.327 32 32-14.327 32-32 32z"/>
</svg>
